<svg width="2473" height="1146" viewBox="0 0 2473 1146" fill="none" xmlns="http://www.w3.org/2000/svg">
<g clip-path="url(#clip0_4155_10854)">
<path d="M34 937.927V65.1992H378.32C444.51 65.1992 500.91 77.8413 547.5 103.125C594.09 128.125 629.6 162.927 654.03 207.529C678.75 251.847 691.11 302.984 691.11 360.938C691.11 418.893 678.61 470.029 653.61 514.347C628.61 558.666 592.38 593.182 544.94 617.898C497.78 642.613 440.68 654.971 373.63 654.971H154.17V507.103H343.8C379.32 507.103 408.58 500.995 431.59 488.779C454.88 476.279 472.21 459.092 483.58 437.217C495.22 415.058 501.05 389.632 501.05 360.938C501.05 331.961 495.22 306.677 483.58 285.086C472.21 263.211 454.88 246.308 431.59 234.376C408.29 222.16 378.75 216.052 342.95 216.052H218.52V937.927H34ZM989.08 65.1992V937.927H807.55V65.1992H989.08ZM1432.8 950.711C1365.47 950.711 1307.51 937.075 1258.93 909.802C1210.64 882.245 1173.42 843.325 1147.28 793.041C1121.15 742.472 1108.08 682.671 1108.08 613.637C1108.08 546.308 1121.15 487.217 1147.28 436.365C1173.42 385.512 1210.21 345.882 1257.65 317.472C1305.38 289.063 1361.35 274.859 1425.55 274.859C1468.73 274.859 1508.93 281.819 1546.15 295.739C1583.65 309.376 1616.32 329.972 1644.16 357.529C1672.28 385.086 1694.16 419.744 1709.78 461.507C1725.41 502.984 1733.22 551.563 1733.22 607.245V657.103H1180.52V544.603H1562.34C1562.34 518.467 1556.66 495.313 1545.3 475.143C1533.93 454.972 1518.16 439.205 1497.99 427.842C1478.11 416.194 1454.95 410.37 1428.53 410.37C1400.98 410.37 1376.55 416.762 1355.24 429.546C1334.22 442.046 1317.74 458.95 1305.81 480.257C1293.88 501.278 1287.77 524.717 1287.48 550.569V657.529C1287.48 689.916 1293.45 717.899 1305.38 741.478C1317.6 765.058 1334.78 783.238 1356.94 796.023C1379.1 808.807 1405.38 815.2 1435.78 815.2C1455.95 815.2 1474.41 812.359 1491.18 806.677C1507.94 800.995 1522.28 792.472 1534.22 781.109C1546.15 769.745 1555.24 755.824 1561.49 739.346L1729.39 750.427C1720.86 790.768 1703.39 825.995 1676.97 856.109C1650.84 885.938 1617.03 909.234 1575.55 925.995C1534.36 942.472 1486.77 950.711 1432.8 950.711ZM2016.18 749.575L2016.6 531.819H2043.02L2252.68 283.382H2461.06L2179.39 612.359H2136.35L2016.18 749.575ZM1851.69 937.927V65.1992H2033.22V937.927H1851.69ZM2260.78 937.927L2068.16 652.841L2189.19 524.575L2473.42 937.927H2260.78Z" fill="white"/>
</g>
<defs>
<clipPath id="clip0_4155_10854">
<rect width="2473" height="1146" fill="white"/>
</clipPath>
</defs>
</svg>
